<svg width="133" height="82" viewBox="0 0 133 82" fill="none" xmlns="http://www.w3.org/2000/svg">
<path d="M5.59433 37.7336C6.84816 35.0457 4.98011 36.8267 3.59329 37.7336C3.02501 38.1047 2.40354 38.4227 1.84373 38.7951C-1.63361 41.113 10.1212 37.6151 14.2188 36.7953C36.3717 32.3664 58.1027 25.9824 80.4105 22.2947C83.9809 21.7046 88.2502 20.8571 91.973 20.8571C96.0839 20.8571 83.8854 22.3382 79.847 23.1072M16.8449 18.6069C16.8449 16.6422 16.8727 14.6847 16.5946 12.7308C15.5984 5.75672 14.5815 16.5938 14.3445 17.7944C12.4874 27.1818 9.88177 36.4701 8.71862 45.9832C8.55902 47.2902 8.02098 60.8006 12.3447 53.7335C19.1374 42.6292 19.2087 29.2651 23.1576 17.4196C24.1914 14.3159 25.2263 17.5816 25.0317 18.9818C24.3231 24.0841 20.2908 30.7136 21.4697 35.8583C21.9207 37.8279 28.0109 28.299 28.2201 27.8577C28.2914 27.6902 28.3551 27.5195 28.4111 27.3463M28.4111 27.3463C29.1523 25.1868 31.3722 17.6626 30.157 20.2948C29.5585 21.5922 28.8004 24.5581 28.4111 27.3463ZM28.4111 27.3463C27.7304 32.2249 28.1814 36.5632 32.5945 30.4826C34.0938 28.4187 35.2437 26.0997 36.2158 23.6936M36.2158 23.6936C37.3245 20.9465 38.2011 18.0834 39.0958 15.3569C39.2736 14.8152 41.3169 5.28155 38.7827 10.5447C37.8807 12.4176 36.3185 19.0845 36.2158 23.6936ZM36.2158 23.6936C36.1215 27.9097 37.2483 30.4016 41.2214 25.9195C43.3101 23.5674 45.1908 21.0386 46.8425 18.3615M46.8425 18.3615C47.9168 16.6209 48.8581 14.8017 49.6584 12.9194C51.327 8.94147 48.4639 13.8093 48.0963 14.8576C47.6852 16.0243 47.2608 17.1911 46.8425 18.3615ZM46.8425 18.3615C46.0735 20.5088 45.3251 22.6659 44.7205 24.8579C44.3694 26.1029 44.0111 27.3459 43.6456 28.5868M43.6456 28.5868C42.6493 31.9892 41.3097 36.4144 41.1585 36.2331C39.9785 34.8172 41.4403 31.7933 43.6456 28.5868ZM43.6456 28.5868C46.6285 24.251 50.9703 19.5827 51.9714 18.1076C52.2713 17.6639 52.5627 17.1161 52.8396 16.5031M52.8396 16.5031C55.2215 11.2303 56.5684 1.08117 53.9713 10.5447C53.6182 11.8288 53.1672 14.0801 52.8396 16.5031ZM52.8396 16.5031C51.8904 23.5159 51.9751 31.9698 58.4715 22.6078C58.8306 22.0903 64.1579 12.7102 64.2219 12.732C65.373 13.1153 63.4953 15.0498 63.222 16.2323C62.6719 18.6033 61.3794 22.5764 62.158 25.0454C62.3249 25.5701 72.9866 10.3017 72.8464 11.7321C71.358 26.9243 67.3934 40.4322 61.8461 54.6088M37.096 57.9846C33.979 57.0935 26.2444 55.876 30.2199 50.984C34.1059 46.2008 40.9663 42.2507 46.7204 40.3585C51.3608 38.8326 53.4223 39.0321 53.8927 40.2049M53.8927 40.2049C54.5794 41.9194 51.8614 45.7172 48.8266 49.2356M53.8927 40.2049C52.0996 43.1558 50.4099 46.1671 48.8266 49.2356M53.8927 40.2049C56.6422 35.6866 59.648 31.3205 62.846 27.3571C63.8882 26.067 62.3152 30.641 61.8461 32.2322C59.8813 38.904 58.4824 46.092 58.0967 53.0467L58.0798 53.3973M48.8266 49.2356C46.3576 52.0988 43.6771 54.7781 42.4523 56.0017L42.4075 56.0464C40.6423 57.8117 39.3171 58.7693 42.6578 57.2338C43.5138 56.8408 44.5077 56.3632 45.5899 55.8723M58.0798 53.3973L57.9709 53.3586C54.4561 52.1701 49.4735 54.1071 45.5899 55.8723M58.0798 53.3973C59.3215 53.8423 60.111 54.5544 60.5306 55.4552M58.0798 53.3973C57.9347 57.0452 58.8633 57.6509 60.5306 55.4552M45.5899 55.8723C45.9284 55.1348 46.2488 54.4565 46.5329 53.8592C47.2713 52.305 48.0356 50.7632 48.8254 49.2344M45.5899 55.8723C43.3446 60.7728 40.3642 68.3344 42.6578 72.9229C45.9889 79.5826 63.6839 62.2249 60.5306 55.4552M60.5306 55.4552C60.8224 55.0707 61.1359 54.6012 61.4713 54.0466C64.9208 48.3373 68.0656 42.3607 71.2226 36.4834C72.5344 34.041 71.7981 45.4766 72.0351 47.6082C72.3942 50.8449 79.6681 36.516 80.223 35.1703C80.7514 33.8862 82.1419 30.0365 82.0355 31.4197C81.6969 35.8208 80.9086 40.1795 80.9715 44.6084C81.0996 53.3393 89.1075 37.5135 89.7858 35.7337C90.3963 34.1293 90.7627 33.1342 90.9549 32.5998M90.9549 32.5998C91.1569 32 91.2137 31.8803 90.9549 32.5998ZM90.9549 32.5998C90.2996 34.5512 88.1184 41.5857 90.348 41.3584C93.8628 40.9993 96.0863 36.0046 97.3389 32.1536M97.3389 32.1536C97.721 30.9759 98.0136 29.9059 98.2228 29.1067C99.7366 23.3587 98.9531 24.5436 97.848 29.2953C97.636 30.24 97.4661 31.1938 97.3389 32.1536ZM97.3389 32.1536C96.6401 37.2644 96.6957 44.2784 101.723 36.9827C102.654 35.6322 105.003 30.1018 106.85 29.733C107.765 29.5492 108.343 33.729 108.661 34.2949C110.826 38.1446 114.666 34.7713 116.975 33.2333M124.849 28.7331C125.714 27.0041 133.058 20.1921 131.6 23.1072" stroke="#535353" stroke-width="1.0906" stroke-linecap="round"/>
</svg>
