<svg width="14" height="14" viewBox="0 0 14 14" fill="none" xmlns="http://www.w3.org/2000/svg">
<path d="M3.61758 12.25H1.07734V4.07148H3.61758V12.25ZM2.34609 2.95586C1.53398 2.95586 0.875 2.2832 0.875 1.47109C0.875 1.08094 1.02999 0.706757 1.30587 0.430873C1.58176 0.15499 1.95594 0 2.34609 0C2.73625 0 3.11043 0.15499 3.38631 0.430873C3.6622 0.706757 3.81719 1.08094 3.81719 1.47109C3.81719 2.2832 3.1582 2.95586 2.34609 2.95586ZM13.1223 12.25H10.5875V8.26875C10.5875 7.31992 10.5684 6.10313 9.2668 6.10313C7.94609 6.10313 7.74375 7.13398 7.74375 8.20039V12.25H5.20625V4.07148H7.64258V5.18711H7.67812C8.01719 4.54453 8.8457 3.86641 10.0816 3.86641C12.652 3.86641 13.125 5.55898 13.125 7.75742V12.25H13.1223Z" fill="#666666"/>
</svg>
