<svg width="14" height="14" viewBox="0 0 14 14" fill="none" xmlns="http://www.w3.org/2000/svg">
<g clip-path="url(#clip0_2028_8331)">
<path d="M1.3125 1.75C0.587891 1.75 0 2.33789 0 3.0625C0 3.47539 0.194141 3.86367 0.525 4.1125L6.475 8.575C6.78672 8.80742 7.21328 8.80742 7.525 8.575L13.475 4.1125C13.8059 3.86367 14 3.47539 14 3.0625C14 2.33789 13.4121 1.75 12.6875 1.75H1.3125ZM0 4.8125V10.5C0 11.4652 0.784766 12.25 1.75 12.25H12.25C13.2152 12.25 14 11.4652 14 10.5V4.8125L8.05 9.275C7.74726 9.50261 7.37876 9.62569 7 9.62569C6.62124 9.62569 6.25274 9.50261 5.95 9.275L0 4.8125Z" fill="#666666"/>
</g>
<defs>
<clipPath id="clip0_2028_8331">
<rect width="14" height="14" fill="white"/>
</clipPath>
</defs>
</svg>
