<svg width="12" height="12" viewBox="0 0 12 12" fill="none" xmlns="http://www.w3.org/2000/svg">
<path d="M8.25006 10.8752C8.25006 10.9747 8.21055 11.0701 8.14023 11.1404C8.0699 11.2107 7.97452 11.2502 7.87506 11.2502H4.12506C4.02561 11.2502 3.93022 11.2107 3.8599 11.1404C3.78957 11.0701 3.75006 10.9747 3.75006 10.8752C3.75006 10.7758 3.78957 10.6804 3.8599 10.6101C3.93022 10.5397 4.02561 10.5002 4.12506 10.5002H7.87506C7.97452 10.5002 8.0699 10.5397 8.14023 10.6101C8.21055 10.6804 8.25006 10.7758 8.25006 10.8752ZM10.1251 4.87522C10.1267 5.50037 9.98545 6.11762 9.71217 6.67987C9.43888 7.24212 9.04076 7.7345 8.54819 8.11944C8.45608 8.19004 8.38134 8.28076 8.32967 8.38467C8.278 8.48858 8.25077 8.60293 8.25006 8.71897V9.00022C8.25006 9.19913 8.17104 9.3899 8.03039 9.53055C7.88974 9.6712 7.69897 9.75022 7.50006 9.75022H4.50006C4.30115 9.75022 4.11038 9.6712 3.96973 9.53055C3.82908 9.3899 3.75006 9.19913 3.75006 9.00022V8.71897C3.74998 8.60431 3.72362 8.4912 3.67299 8.38832C3.62237 8.28545 3.54883 8.19555 3.45803 8.12553C2.96669 7.74287 2.56883 7.25344 2.29458 6.6943C2.02033 6.13517 1.87687 5.52096 1.87506 4.89819C1.86287 2.66413 3.6685 0.803658 5.90069 0.750221C6.45069 0.736967 6.9978 0.833871 7.50979 1.03523C8.02179 1.23659 8.48833 1.53833 8.88196 1.9227C9.27559 2.30707 9.58835 2.7663 9.80184 3.27336C10.0153 3.78041 10.1252 4.32505 10.1251 4.87522ZM8.61991 4.43741C8.52267 3.89427 8.26135 3.39395 7.87114 3.00383C7.48094 2.6137 6.98057 2.3525 6.43741 2.25538C6.38884 2.24719 6.33913 2.24865 6.29113 2.25967C6.24312 2.27069 6.19776 2.29106 6.15763 2.31962C6.11749 2.34817 6.08338 2.38435 6.05723 2.42609C6.03108 2.46783 6.0134 2.51431 6.00522 2.56288C5.99703 2.61145 5.99849 2.66115 6.00951 2.70916C6.02053 2.75716 6.0409 2.80252 6.06946 2.84266C6.09801 2.88279 6.13419 2.9169 6.17593 2.94305C6.21767 2.9692 6.26415 2.98688 6.31272 2.99506C7.08944 3.12585 7.7485 3.78491 7.88022 4.56303C7.89506 4.65037 7.94034 4.72964 8.00803 4.78678C8.07573 4.84392 8.16147 4.87525 8.25006 4.87522C8.27126 4.87509 8.29241 4.87337 8.31334 4.87006C8.41136 4.85333 8.49872 4.79835 8.55621 4.71722C8.6137 4.63608 8.63661 4.53543 8.61991 4.43741Z" fill="#666666"/>
</svg>
