<svg width="14" height="14" viewBox="0 0 14 14" fill="none" xmlns="http://www.w3.org/2000/svg">
<path d="M10.5 12.6875C10.7406 12.6875 10.9375 12.4906 10.9375 12.25V4.375H8.75C8.26602 4.375 7.875 3.98398 7.875 3.5V1.3125H3.5C3.25937 1.3125 3.0625 1.50937 3.0625 1.75V12.25C3.0625 12.4906 3.25937 12.6875 3.5 12.6875H10.5ZM1.75 1.75C1.75 0.784766 2.53477 0 3.5 0H8.02539C8.49023 0 8.93594 0.183203 9.26406 0.511328L11.7387 2.98594C12.0668 3.31406 12.25 3.75977 12.25 4.22461V12.25C12.25 13.2152 11.4652 14 10.5 14H3.5C2.53477 14 1.75 13.2152 1.75 12.25V1.75Z" fill="#666666"/>
</svg>
